<svg width="158" height="17" viewBox="0 0 158 17" fill="none" xmlns="http://www.w3.org/2000/svg">
<path d="M8.75277 12.457L7.63819 9.29255H3.28118L2.1666 12.457H0.194641L4.43474 1.01501H6.50802L10.7403 12.457H8.75277ZM7.15494 7.68693L6.07154 4.56921C6.02997 4.43411 5.97021 4.24445 5.89227 4.00023C5.81433 3.75081 5.73638 3.49879 5.65844 3.24418C5.5805 2.98437 5.51554 2.76613 5.46358 2.58946C5.41162 2.8025 5.34667 3.04153 5.26872 3.30653C5.19598 3.56634 5.12323 3.81056 5.05048 4.0392C4.98293 4.26783 4.93097 4.4445 4.8946 4.56921L3.8034 7.68693H7.15494ZM16.4302 3.66507C16.5756 3.66507 16.7341 3.67287 16.9056 3.68845C17.0771 3.70404 17.2252 3.72483 17.3499 3.75081L17.1784 5.46555C17.0693 5.43437 16.9342 5.41099 16.7731 5.3954C16.6172 5.37981 16.4769 5.37202 16.3522 5.37202C16.0248 5.37202 15.7131 5.42658 15.4169 5.5357C15.1207 5.63962 14.8583 5.80071 14.6297 6.01895C14.401 6.23199 14.2218 6.49959 14.0919 6.82176C13.962 7.14392 13.897 7.51805 13.897 7.94414V12.457H12.0576V3.82875H13.4917L13.7411 5.34864H13.8269C13.9983 5.04206 14.2114 4.76147 14.466 4.50685C14.7206 4.25224 15.0116 4.04959 15.3389 3.8989C15.6715 3.74301 16.0352 3.66507 16.4302 3.66507ZM22.159 11.132C22.398 11.132 22.6344 11.1112 22.8682 11.0696C23.1021 11.0229 23.3151 10.9683 23.5074 10.906V12.2934C23.3047 12.3817 23.0423 12.457 22.7201 12.5194C22.398 12.5817 22.0628 12.6129 21.7147 12.6129C21.2262 12.6129 20.7872 12.5324 20.3974 12.3713C20.0077 12.205 19.6986 11.9218 19.4699 11.5217C19.2413 11.1216 19.127 10.5682 19.127 9.86153V5.22393H17.95V4.40553L19.2127 3.7586L19.8129 1.91136H20.9664V3.82875H23.4372V5.22393H20.9664V9.83815C20.9664 10.2746 21.0755 10.5994 21.2938 10.8124C21.512 11.0255 21.8004 11.132 22.159 11.132ZM27.0927 3.82875V12.457H25.2611V3.82875H27.0927ZM26.1886 0.523971C26.4692 0.523971 26.7108 0.599316 26.9135 0.750006C27.1213 0.900695 27.2252 1.16051 27.2252 1.52943C27.2252 1.89317 27.1213 2.15298 26.9135 2.30886C26.7108 2.45955 26.4692 2.5349 26.1886 2.5349C25.8976 2.5349 25.6508 2.45955 25.4481 2.30886C25.2507 2.15298 25.152 1.89317 25.152 1.52943C25.152 1.16051 25.2507 0.900695 25.4481 0.750006C25.6508 0.599316 25.8976 0.523971 26.1886 0.523971ZM34.0297 5.22393H31.933V12.457H30.1013V5.22393H28.6906V4.34317L30.1013 3.80537V3.20521C30.1013 2.47254 30.2157 1.89057 30.4443 1.45929C30.6781 1.028 31.0107 0.718829 31.442 0.531766C31.8784 0.339506 32.3981 0.243377 33.0008 0.243377C33.3957 0.243377 33.7569 0.277152 34.0842 0.344703C34.4116 0.407057 34.687 0.479804 34.9104 0.562943L34.435 1.95033C34.2583 1.89317 34.0608 1.84121 33.8426 1.79444C33.6244 1.74248 33.3905 1.7165 33.1411 1.7165C32.7254 1.7165 32.4188 1.8464 32.2214 2.10621C32.0291 2.36602 31.933 2.74534 31.933 3.24418V3.82875H34.0297V5.22393ZM37.3266 3.82875V12.457H35.495V3.82875H37.3266ZM36.4225 0.523971C36.7031 0.523971 36.9447 0.599316 37.1474 0.750006C37.3552 0.900695 37.4591 1.16051 37.4591 1.52943C37.4591 1.89317 37.3552 2.15298 37.1474 2.30886C36.9447 2.45955 36.7031 2.5349 36.4225 2.5349C36.1315 2.5349 35.8847 2.45955 35.682 2.30886C35.4846 2.15298 35.3859 1.89317 35.3859 1.52943C35.3859 1.16051 35.4846 0.900695 35.682 0.750006C35.8847 0.599316 36.1315 0.523971 36.4225 0.523971ZM43.4218 12.6129C42.606 12.6129 41.8993 12.4544 41.3017 12.1375C40.7042 11.8205 40.2443 11.3347 39.9221 10.6799C39.6 10.0252 39.4389 9.19382 39.4389 8.18576C39.4389 7.13613 39.6156 6.27876 39.9689 5.61364C40.3223 4.94853 40.8107 4.45749 41.4342 4.14052C42.063 3.82355 42.7826 3.66507 43.5933 3.66507C44.1077 3.66507 44.5727 3.71703 44.9884 3.82096C45.4093 3.91968 45.7653 4.04179 46.0563 4.18729L45.5107 5.65261C45.1937 5.52271 44.8689 5.41359 44.5364 5.32525C44.2038 5.23692 43.8842 5.19275 43.5777 5.19275C43.0736 5.19275 42.6527 5.30447 42.315 5.52791C41.9824 5.75134 41.733 6.0839 41.5667 6.52558C41.4057 6.96725 41.3251 7.51545 41.3251 8.17017C41.3251 8.80411 41.4083 9.33931 41.5745 9.7758C41.7408 10.2071 41.9876 10.5344 42.315 10.7579C42.6424 10.9761 43.0451 11.0852 43.5231 11.0852C43.996 11.0852 44.4194 11.0281 44.7936 10.9138C45.1677 10.7994 45.521 10.6514 45.8536 10.4695V12.0595C45.5262 12.2466 45.1755 12.3843 44.8014 12.4726C44.4272 12.5662 43.9674 12.6129 43.4218 12.6129ZM49.7118 3.82875V12.457H47.8801V3.82875H49.7118ZM48.8076 0.523971C49.0882 0.523971 49.3299 0.599316 49.5325 0.750006C49.7404 0.900695 49.8443 1.16051 49.8443 1.52943C49.8443 1.89317 49.7404 2.15298 49.5325 2.30886C49.3299 2.45955 49.0882 2.5349 48.8076 2.5349C48.5166 2.5349 48.2698 2.45955 48.0672 2.30886C47.8697 2.15298 47.771 1.89317 47.771 1.52943C47.771 1.16051 47.8697 0.900695 48.0672 0.750006C48.2698 0.599316 48.5166 0.523971 48.8076 0.523971ZM55.7212 3.66507C56.8124 3.66507 57.636 3.90669 58.192 4.38994C58.7531 4.87319 59.0337 5.62663 59.0337 6.65028V12.457H57.7321L57.3814 11.2333H57.319C57.0748 11.5451 56.8228 11.8023 56.563 12.005C56.3031 12.2076 56.0018 12.3583 55.6588 12.457C55.3211 12.561 54.908 12.6129 54.4195 12.6129C53.9051 12.6129 53.4452 12.5194 53.0399 12.3323C52.6346 12.1401 52.3151 11.8491 52.0812 11.4594C51.8474 11.0696 51.7305 10.576 51.7305 9.97845C51.7305 9.0899 52.0605 8.42219 52.7204 7.97531C53.3855 7.52844 54.3883 7.28162 55.729 7.23486L57.2255 7.1803V6.72823C57.2255 6.13066 57.0852 5.70458 56.8046 5.44996C56.5292 5.19535 56.1395 5.06804 55.6354 5.06804C55.2041 5.06804 54.7859 5.1304 54.3806 5.25511C53.9752 5.37981 53.5803 5.5331 53.1958 5.71497L52.6035 4.42112C53.0243 4.19768 53.5024 4.01581 54.0376 3.87552C54.578 3.73522 55.1392 3.66507 55.7212 3.66507ZM57.2177 8.33385L56.1031 8.37282C55.1886 8.404 54.5468 8.55989 54.1779 8.84048C53.809 9.12107 53.6245 9.50559 53.6245 9.99404C53.6245 10.4201 53.7518 10.7319 54.0064 10.9294C54.261 11.1216 54.5962 11.2177 55.0119 11.2177C55.6458 11.2177 56.1706 11.0385 56.5863 10.6799C57.0072 10.3162 57.2177 9.78359 57.2177 9.0821V8.33385ZM63.4375 12.457H61.5981V0.329114H63.4375V12.457ZM70.39 12.457V1.06178H72.2607V12.457H70.39ZM79.5795 3.66507C80.5512 3.66507 81.3072 3.91709 81.8476 4.42112C82.3932 4.91995 82.666 5.72276 82.666 6.82955V12.457H80.8344V7.1725C80.8344 6.50219 80.6967 6.00076 80.4213 5.6682C80.1459 5.33045 79.7198 5.16157 79.143 5.16157C78.3064 5.16157 77.7245 5.41879 77.3971 5.93321C77.0749 6.44763 76.9139 7.19329 76.9139 8.17017V12.457H75.0822V3.82875H76.5085L76.7658 4.99789H76.8671C77.0541 4.69652 77.2854 4.4497 77.5608 4.25744C77.8414 4.05998 78.1531 3.91189 78.4961 3.81316C78.8442 3.71443 79.2054 3.66507 79.5795 3.66507ZM88.4416 11.132C88.6806 11.132 88.9171 11.1112 89.1509 11.0696C89.3847 11.0229 89.5978 10.9683 89.79 10.906V12.2934C89.5874 12.3817 89.325 12.457 89.0028 12.5194C88.6806 12.5817 88.3455 12.6129 87.9973 12.6129C87.5089 12.6129 87.0698 12.5324 86.6801 12.3713C86.2904 12.205 85.9812 11.9218 85.7526 11.5217C85.5239 11.1216 85.4096 10.5682 85.4096 9.86153V5.22393H84.2327V4.40553L85.4954 3.7586L86.0955 1.91136H87.2491V3.82875H89.7199V5.22393H87.2491V9.83815C87.2491 10.2746 87.3582 10.5994 87.5764 10.8124C87.7947 11.0255 88.0831 11.132 88.4416 11.132ZM94.981 3.66507C95.7501 3.66507 96.41 3.82355 96.9608 4.14052C97.5116 4.45749 97.9351 4.90696 98.2312 5.48893C98.5274 6.07091 98.6755 6.7672 98.6755 7.5778V8.55989H92.9155C92.9363 9.39647 93.1597 10.0408 93.5858 10.4929C94.0171 10.9449 94.6199 11.171 95.3941 11.171C95.9449 11.171 96.4385 11.119 96.875 11.0151C97.3167 10.906 97.7714 10.7475 98.239 10.5396V12.0283C97.8077 12.231 97.3687 12.3791 96.9218 12.4726C96.4749 12.5662 95.9397 12.6129 95.3162 12.6129C94.4692 12.6129 93.7235 12.4492 93.0792 12.1219C92.4401 11.7893 91.9386 11.2957 91.5749 10.641C91.2164 9.98624 91.0371 9.17304 91.0371 8.20135C91.0371 7.23486 91.2008 6.41386 91.5281 5.73835C91.8555 5.06285 92.3154 4.54842 92.9077 4.19508C93.5001 3.84174 94.1912 3.66507 94.981 3.66507ZM94.981 5.04466C94.4042 5.04466 93.9366 5.23172 93.578 5.60585C93.2247 5.97998 93.0169 6.52817 92.9545 7.25044H96.8828C96.8776 6.81916 96.8049 6.43724 96.6646 6.10468C96.5295 5.77213 96.3216 5.51232 96.041 5.32525C95.7656 5.13819 95.4123 5.04466 94.981 5.04466ZM102.58 12.457H100.741V0.329114H102.58V12.457ZM107.039 12.457H105.199V0.329114H107.039V12.457ZM111.489 3.82875V12.457H109.658V3.82875H111.489ZM110.585 0.523971C110.866 0.523971 111.107 0.599316 111.31 0.750006C111.518 0.900695 111.622 1.16051 111.622 1.52943C111.622 1.89317 111.518 2.15298 111.31 2.30886C111.107 2.45955 110.866 2.5349 110.585 2.5349C110.294 2.5349 110.047 2.45955 109.845 2.30886C109.647 2.15298 109.549 1.89317 109.549 1.52943C109.549 1.16051 109.647 0.900695 109.845 0.750006C110.047 0.599316 110.294 0.523971 110.585 0.523971ZM116.579 16.2918C115.41 16.2918 114.514 16.0814 113.89 15.6605C113.266 15.2396 112.955 14.6498 112.955 13.8912C112.955 13.3612 113.121 12.9117 113.453 12.5428C113.786 12.179 114.261 11.927 114.88 11.7867C114.646 11.6828 114.443 11.5217 114.272 11.3035C114.106 11.08 114.022 10.8332 114.022 10.563C114.022 10.2409 114.113 9.96546 114.295 9.73682C114.477 9.50819 114.75 9.28735 115.114 9.07431C114.662 8.88205 114.298 8.57028 114.022 8.13899C113.752 7.70251 113.617 7.19069 113.617 6.60352C113.617 5.97998 113.75 5.44996 114.015 5.01348C114.28 4.57181 114.667 4.23665 115.176 4.00802C115.685 3.77419 116.301 3.65728 117.023 3.65728C117.179 3.65728 117.348 3.66767 117.53 3.68845C117.717 3.70404 117.888 3.72483 118.044 3.75081C118.205 3.77159 118.328 3.79498 118.411 3.82096H121.396V4.84201L119.931 5.11481C120.071 5.31226 120.183 5.5383 120.266 5.79291C120.349 6.04233 120.39 6.31513 120.39 6.61131C120.39 7.50506 120.081 8.20914 119.463 8.72357C118.85 9.23279 118.003 9.48741 116.922 9.48741C116.662 9.47701 116.41 9.45623 116.166 9.42505C115.979 9.53937 115.836 9.66667 115.737 9.80697C115.638 9.94207 115.589 10.0954 115.589 10.2668C115.589 10.4071 115.638 10.5214 115.737 10.6098C115.836 10.6929 115.981 10.7553 116.174 10.7968C116.371 10.8384 116.61 10.8592 116.891 10.8592H118.379C119.325 10.8592 120.047 11.0593 120.546 11.4594C121.045 11.8595 121.295 12.4466 121.295 13.2209C121.295 14.203 120.889 14.959 120.079 15.489C119.268 16.0242 118.101 16.2918 116.579 16.2918ZM116.649 15.0058C117.288 15.0058 117.826 14.9434 118.263 14.8187C118.699 14.694 119.029 14.5147 119.252 14.2809C119.476 14.0523 119.588 13.7795 119.588 13.4625C119.588 13.1819 119.517 12.9663 119.377 12.8156C119.237 12.6649 119.026 12.561 118.746 12.5038C118.465 12.4466 118.117 12.4181 117.701 12.4181H116.345C116.007 12.4181 115.709 12.47 115.449 12.5739C115.189 12.6831 114.986 12.839 114.841 13.0416C114.701 13.2443 114.63 13.4885 114.63 13.7743C114.63 14.1692 114.805 14.4732 115.153 14.6862C115.506 14.8992 116.005 15.0058 116.649 15.0058ZM117.008 8.28709C117.543 8.28709 117.94 8.14159 118.2 7.85061C118.46 7.55442 118.59 7.13873 118.59 6.60352C118.59 6.02154 118.455 5.58506 118.185 5.29408C117.92 5.00309 117.525 4.8576 117 4.8576C116.485 4.8576 116.093 5.00569 115.823 5.30187C115.558 5.59805 115.425 6.03713 115.425 6.61911C115.425 7.14392 115.558 7.55442 115.823 7.85061C116.093 8.14159 116.488 8.28709 117.008 8.28709ZM126.408 3.66507C127.177 3.66507 127.837 3.82355 128.387 4.14052C128.938 4.45749 129.362 4.90696 129.658 5.48893C129.954 6.07091 130.102 6.7672 130.102 7.5778V8.55989H124.342C124.363 9.39647 124.586 10.0408 125.012 10.4929C125.444 10.9449 126.046 11.171 126.821 11.171C127.371 11.171 127.865 11.119 128.302 11.0151C128.743 10.906 129.198 10.7475 129.666 10.5396V12.0283C129.234 12.231 128.795 12.3791 128.348 12.4726C127.902 12.5662 127.366 12.6129 126.743 12.6129C125.896 12.6129 125.15 12.4492 124.506 12.1219C123.867 11.7893 123.365 11.2957 123.001 10.641C122.643 9.98624 122.464 9.17304 122.464 8.20135C122.464 7.23486 122.627 6.41386 122.955 5.73835C123.282 5.06285 123.742 4.54842 124.334 4.19508C124.927 3.84174 125.618 3.66507 126.408 3.66507ZM126.408 5.04466C125.831 5.04466 125.363 5.23172 125.005 5.60585C124.651 5.97998 124.443 6.52817 124.381 7.25044H128.309C128.304 6.81916 128.231 6.43724 128.091 6.10468C127.956 5.77213 127.748 5.51232 127.468 5.32525C127.192 5.13819 126.839 5.04466 126.408 5.04466ZM136.665 3.66507C137.637 3.66507 138.393 3.91709 138.933 4.42112C139.479 4.91995 139.751 5.72276 139.751 6.82955V12.457H137.92V7.1725C137.92 6.50219 137.782 6.00076 137.507 5.6682C137.231 5.33045 136.805 5.16157 136.228 5.16157C135.392 5.16157 134.81 5.41879 134.482 5.93321C134.16 6.44763 133.999 7.19329 133.999 8.17017V12.457H132.168V3.82875H133.594L133.851 4.99789H133.952C134.14 4.69652 134.371 4.4497 134.646 4.25744C134.927 4.05998 135.239 3.91189 135.581 3.81316C135.93 3.71443 136.291 3.66507 136.665 3.66507ZM145.792 12.6129C144.976 12.6129 144.27 12.4544 143.672 12.1375C143.074 11.8205 142.615 11.3347 142.292 10.6799C141.97 10.0252 141.809 9.19382 141.809 8.18576C141.809 7.13613 141.986 6.27876 142.339 5.61364C142.692 4.94853 143.181 4.45749 143.804 4.14052C144.433 3.82355 145.153 3.66507 145.963 3.66507C146.478 3.66507 146.943 3.71703 147.359 3.82096C147.78 3.91968 148.135 4.04179 148.426 4.18729L147.881 5.65261C147.564 5.52271 147.239 5.41359 146.907 5.32525C146.574 5.23692 146.254 5.19275 145.948 5.19275C145.444 5.19275 145.023 5.30447 144.685 5.52791C144.353 5.75134 144.103 6.0839 143.937 6.52558C143.776 6.96725 143.695 7.51545 143.695 8.17017C143.695 8.80411 143.778 9.33931 143.945 9.7758C144.111 10.2071 144.358 10.5344 144.685 10.7579C145.013 10.9761 145.415 11.0852 145.893 11.0852C146.366 11.0852 146.79 11.0281 147.164 10.9138C147.538 10.7994 147.891 10.6514 148.224 10.4695V12.0595C147.896 12.2466 147.546 12.3843 147.172 12.4726C146.797 12.5662 146.338 12.6129 145.792 12.6129ZM153.688 3.66507C154.457 3.66507 155.117 3.82355 155.667 4.14052C156.218 4.45749 156.642 4.90696 156.938 5.48893C157.234 6.07091 157.382 6.7672 157.382 7.5778V8.55989H151.622C151.643 9.39647 151.866 10.0408 152.292 10.4929C152.724 10.9449 153.326 11.171 154.101 11.171C154.652 11.171 155.145 11.119 155.582 11.0151C156.023 10.906 156.478 10.7475 156.946 10.5396V12.0283C156.514 12.231 156.075 12.3791 155.628 12.4726C155.182 12.5662 154.646 12.6129 154.023 12.6129C153.176 12.6129 152.43 12.4492 151.786 12.1219C151.147 11.7893 150.645 11.2957 150.282 10.641C149.923 9.98624 149.744 9.17304 149.744 8.20135C149.744 7.23486 149.907 6.41386 150.235 5.73835C150.562 5.06285 151.022 4.54842 151.614 4.19508C152.207 3.84174 152.898 3.66507 153.688 3.66507ZM153.688 5.04466C153.111 5.04466 152.643 5.23172 152.285 5.60585C151.931 5.97998 151.723 6.52817 151.661 7.25044H155.589C155.584 6.81916 155.511 6.43724 155.371 6.10468C155.236 5.77213 155.028 5.51232 154.748 5.32525C154.472 5.13819 154.119 5.04466 153.688 5.04466Z" fill="#3A68B8"/>
</svg>
