<svg width="284" height="18" viewBox="0 0 284 18" fill="none" xmlns="http://www.w3.org/2000/svg">
<path d="M28.3679 14.4185C26.9772 14.4185 25.7919 13.9472 24.8119 13.0045C23.8412 12.0618 23.3559 10.8112 23.3559 9.2525C23.3559 7.70316 23.8506 6.4525 24.8399 5.5005C25.8292 4.5485 27.0006 4.0725 28.3539 4.0725C29.5486 4.0725 30.5286 4.37583 31.2939 4.9825C32.0686 5.58916 32.5772 6.35916 32.8199 7.2925L31.2379 7.8245C31.0792 7.1805 30.7572 6.65783 30.2719 6.2565C29.7866 5.85516 29.1472 5.6545 28.3539 5.6545C27.4672 5.6545 26.6972 5.97183 26.0439 6.6065C25.3999 7.23183 25.0779 8.11383 25.0779 9.2525C25.0779 10.3632 25.3999 11.2358 26.0439 11.8705C26.6879 12.4958 27.4626 12.8085 28.3679 12.8085C29.1426 12.8085 29.7819 12.5985 30.2859 12.1785C30.7899 11.7585 31.1352 11.2405 31.3219 10.6245L32.8619 11.1285C32.6192 12.0525 32.1059 12.8318 31.3219 13.4665C30.5472 14.1012 29.5625 14.4185 28.3679 14.4185ZM35.8192 12.3885C36.1925 12.7712 36.6452 12.9625 37.1772 12.9625C37.7092 12.9625 38.1572 12.7712 38.5212 12.3885C38.8945 12.0058 39.0812 11.4738 39.0812 10.7925C39.0812 10.1205 38.8945 9.59783 38.5212 9.2245C38.1572 8.84183 37.7092 8.6505 37.1772 8.6505C36.6452 8.6505 36.1925 8.84183 35.8192 9.2245C35.4552 9.59783 35.2732 10.1205 35.2732 10.7925C35.2732 11.4645 35.4552 11.9965 35.8192 12.3885ZM37.1772 7.1805C38.2038 7.1805 39.0485 7.52116 39.7112 8.2025C40.3832 8.88383 40.7192 9.74716 40.7192 10.7925C40.7192 11.8378 40.3832 12.7058 39.7112 13.3965C39.0485 14.0778 38.2038 14.4185 37.1772 14.4185C36.1598 14.4185 35.3152 14.0778 34.6432 13.3965C33.9805 12.7058 33.6492 11.8378 33.6492 10.7925C33.6492 9.74716 33.9805 8.88383 34.6432 8.2025C35.3152 7.52116 36.1598 7.1805 37.1772 7.1805ZM43.8986 14.2085H42.2886V7.3905H43.8426V8.2585C44.0293 7.9225 44.3093 7.66116 44.6826 7.4745C45.0653 7.28783 45.4573 7.1945 45.8586 7.1945C46.3159 7.1945 46.7266 7.29716 47.0906 7.5025C47.4546 7.70783 47.7253 8.0065 47.9026 8.3985C48.3786 7.59583 49.1159 7.1945 50.1146 7.1945C50.7866 7.1945 51.3559 7.41383 51.8226 7.8525C52.2893 8.29116 52.5226 8.93516 52.5226 9.7845V14.2085H50.9546V10.0505C50.9546 9.6305 50.8426 9.2945 50.6186 9.0425C50.4039 8.78116 50.0773 8.6505 49.6386 8.6505C49.2186 8.6505 48.8779 8.79516 48.6166 9.0845C48.3553 9.37383 48.2246 9.73316 48.2246 10.1625V14.2085H46.6286V10.0505C46.6286 9.6305 46.5166 9.2945 46.2926 9.0425C46.0779 8.78116 45.7513 8.6505 45.3126 8.6505C44.8833 8.6505 44.5379 8.79516 44.2766 9.0845C44.0246 9.3645 43.8986 9.72383 43.8986 10.1625V14.2085ZM56.1212 16.8685H54.5112V7.3905H56.0792V8.3145C56.2566 8.0065 56.5366 7.74983 56.9192 7.5445C57.3019 7.33916 57.7452 7.2365 58.2492 7.2365C59.2292 7.2365 59.9992 7.5725 60.5592 8.2445C61.1192 8.90716 61.3992 9.7565 61.3992 10.7925C61.3992 11.8285 61.1052 12.6872 60.5172 13.3685C59.9292 14.0405 59.1546 14.3765 58.1932 14.3765C57.7266 14.3765 57.3112 14.2878 56.9472 14.1105C56.5832 13.9332 56.3079 13.7092 56.1212 13.4385V16.8685ZM59.7752 10.7925C59.7752 10.1578 59.6072 9.64916 59.2712 9.2665C58.9352 8.8745 58.4919 8.6785 57.9412 8.6785C57.3999 8.6785 56.9566 8.8745 56.6112 9.2665C56.2752 9.64916 56.1072 10.1578 56.1072 10.7925C56.1072 11.4365 56.2752 11.9545 56.6112 12.3465C56.9566 12.7385 57.3999 12.9345 57.9412 12.9345C58.4826 12.9345 58.9212 12.7385 59.2572 12.3465C59.6026 11.9545 59.7752 11.4365 59.7752 10.7925ZM62.5405 12.3605C62.5405 11.7818 62.7271 11.3198 63.1005 10.9745C63.4831 10.6198 63.9825 10.3958 64.5985 10.3025L66.3485 10.0365C66.6845 9.98983 66.8525 9.8265 66.8525 9.5465C66.8525 9.2385 66.7451 8.99116 66.5305 8.8045C66.3158 8.6085 65.9938 8.5105 65.5645 8.5105C65.1538 8.5105 64.8271 8.62716 64.5845 8.8605C64.3418 9.0845 64.2018 9.3785 64.1645 9.7425L62.6805 9.4065C62.7458 8.7905 63.0398 8.26783 63.5625 7.8385C64.0851 7.39983 64.7478 7.1805 65.5505 7.1805C66.5398 7.1805 67.2678 7.4185 67.7345 7.8945C68.2105 8.3705 68.4485 8.98183 68.4485 9.7285V13.1165C68.4485 13.5645 68.4765 13.9285 68.5325 14.2085H67.0205C66.9738 14.0685 66.9505 13.7792 66.9505 13.3405C66.5025 14.0592 65.8025 14.4185 64.8505 14.4185C64.1598 14.4185 63.5998 14.2178 63.1705 13.8165C62.7505 13.4058 62.5405 12.9205 62.5405 12.3605ZM65.1585 13.1445C65.6625 13.1445 66.0685 13.0092 66.3765 12.7385C66.6938 12.4585 66.8525 12.0058 66.8525 11.3805V11.0725L65.0745 11.3385C64.4678 11.4412 64.1645 11.7492 64.1645 12.2625C64.1645 12.5052 64.2531 12.7152 64.4305 12.8925C64.6078 13.0605 64.8505 13.1445 65.1585 13.1445ZM72.0356 10.2745V14.2085H70.4116V7.3905H71.9936V8.3005C72.2083 7.92716 72.493 7.65183 72.8476 7.4745C73.2116 7.28783 73.599 7.1945 74.0096 7.1945C74.8123 7.1945 75.4236 7.4465 75.8436 7.9505C76.2636 8.4545 76.4736 9.10316 76.4736 9.8965V14.2085H74.8496V10.1765C74.8496 9.71916 74.7376 9.35516 74.5136 9.0845C74.2896 8.8045 73.935 8.6645 73.4496 8.6645C73.0016 8.6645 72.6516 8.8185 72.3996 9.1265C72.157 9.42516 72.0356 9.80783 72.0356 10.2745ZM80.4543 16.9665H78.7183L80.3563 13.3965L77.4443 7.3905H79.2783L81.2383 11.7025L83.0723 7.3905H84.7943L80.4543 16.9665ZM93.3456 12.2765C92.9909 12.2765 92.6923 12.2018 92.4496 12.0525C92.2069 11.8938 92.0483 11.6792 91.9736 11.4085C91.7869 11.6978 91.5443 11.9218 91.2456 12.0805C90.9563 12.2298 90.6529 12.3045 90.3356 12.3045C89.7196 12.3045 89.2109 12.0805 88.8096 11.6325C88.4083 11.1845 88.2076 10.6058 88.2076 9.8965C88.2076 8.98183 88.4783 8.22116 89.0196 7.6145C89.5609 6.9985 90.2143 6.6905 90.9796 6.6905C91.2876 6.6905 91.5723 6.76516 91.8336 6.9145C92.1043 7.0545 92.2909 7.2645 92.3936 7.5445L92.5196 6.8725H93.7516L93.0096 10.3445C92.9816 10.4845 92.9676 10.5825 92.9676 10.6385C92.9676 10.9932 93.1263 11.1705 93.4436 11.1705C93.8169 11.1705 94.1483 10.9232 94.4376 10.4285C94.7363 9.93383 94.8856 9.34583 94.8856 8.6645C94.8856 7.6565 94.5356 6.8305 93.8356 6.1865C93.1356 5.5425 92.2256 5.2205 91.1056 5.2205C89.8923 5.2205 88.8889 5.62183 88.0956 6.4245C87.3023 7.22716 86.9056 8.2725 86.9056 9.5605C86.9056 10.7832 87.2929 11.7865 88.0676 12.5705C88.8516 13.3452 89.9063 13.7325 91.2316 13.7325C92.2489 13.7325 93.1496 13.4338 93.9336 12.8365L94.5636 13.6905C94.1809 14.0452 93.6769 14.3298 93.0516 14.5445C92.4263 14.7592 91.8196 14.8665 91.2316 14.8665C89.5796 14.8665 88.2309 14.3765 87.1856 13.3965C86.1403 12.4165 85.6176 11.1378 85.6176 9.5605C85.6176 7.95516 86.1449 6.63916 87.1996 5.6125C88.2636 4.58583 89.5609 4.0725 91.0916 4.0725C92.5196 4.0725 93.7096 4.51116 94.6616 5.3885C95.6229 6.2565 96.1036 7.34383 96.1036 8.6505C96.1036 9.6865 95.8283 10.5498 95.2776 11.2405C94.7363 11.9218 94.0923 12.2672 93.3456 12.2765ZM92.0856 9.0565C92.0856 8.68316 91.9923 8.39383 91.8056 8.1885C91.6283 7.97383 91.3716 7.8665 91.0356 7.8665C90.5783 7.8665 90.2096 8.06716 89.9296 8.4685C89.6496 8.8605 89.5096 9.30383 89.5096 9.7985C89.5096 10.1998 89.5983 10.5265 89.7756 10.7785C89.9529 11.0212 90.2236 11.1425 90.5876 11.1425C91.0169 11.1425 91.3669 10.9465 91.6376 10.5545C91.9176 10.1625 92.0669 9.66316 92.0856 9.0565ZM97.0603 14.5865L98.5583 14.1945C98.6143 14.6238 98.7963 14.9738 99.1043 15.2445C99.4216 15.5245 99.809 15.6645 100.266 15.6645C101.554 15.6645 102.198 14.9832 102.198 13.6205V12.9065C102.04 13.1958 101.788 13.4338 101.442 13.6205C101.097 13.8072 100.691 13.9005 100.224 13.9005C99.3096 13.9005 98.5536 13.5878 97.9563 12.9625C97.3683 12.3372 97.0743 11.5438 97.0743 10.5825C97.0743 9.6585 97.3683 8.8745 97.9563 8.2305C98.5443 7.5865 99.3003 7.2645 100.224 7.2645C101.223 7.2645 101.895 7.59583 102.24 8.2585V7.3905H103.808V13.5645C103.808 14.5725 103.524 15.4078 102.954 16.0705C102.385 16.7425 101.503 17.0785 100.308 17.0785C99.431 17.0785 98.6936 16.8405 98.0963 16.3645C97.499 15.8885 97.1536 15.2958 97.0603 14.5865ZM100.49 12.5145C101.013 12.5145 101.433 12.3418 101.75 11.9965C102.077 11.6418 102.24 11.1705 102.24 10.5825C102.24 10.0038 102.077 9.54183 101.75 9.1965C101.424 8.84183 101.004 8.6645 100.49 8.6645C99.9676 8.6645 99.5383 8.84183 99.2023 9.1965C98.8756 9.54183 98.7123 10.0038 98.7123 10.5825C98.7123 11.1705 98.8756 11.6418 99.2023 11.9965C99.529 12.3418 99.9583 12.5145 100.49 12.5145ZM107.404 14.2085H105.794V7.3905H107.348V8.2585C107.535 7.9225 107.815 7.66116 108.188 7.4745C108.571 7.28783 108.963 7.1945 109.364 7.1945C109.822 7.1945 110.232 7.29716 110.596 7.5025C110.96 7.70783 111.231 8.0065 111.408 8.3985C111.884 7.59583 112.622 7.1945 113.62 7.1945C114.292 7.1945 114.862 7.41383 115.328 7.8525C115.795 8.29116 116.028 8.93516 116.028 9.7845V14.2085H114.46V10.0505C114.46 9.6305 114.348 9.2945 114.124 9.0425C113.91 8.78116 113.583 8.6505 113.144 8.6505C112.724 8.6505 112.384 8.79516 112.122 9.0845C111.861 9.37383 111.73 9.73316 111.73 10.1625V14.2085H110.134V10.0505C110.134 9.6305 110.022 9.2945 109.798 9.0425C109.584 8.78116 109.257 8.6505 108.818 8.6505C108.389 8.6505 108.044 8.79516 107.782 9.0845C107.53 9.3645 107.404 9.72383 107.404 10.1625V14.2085ZM117.597 12.3605C117.597 11.7818 117.784 11.3198 118.157 10.9745C118.54 10.6198 119.039 10.3958 119.655 10.3025L121.405 10.0365C121.741 9.98983 121.909 9.8265 121.909 9.5465C121.909 9.2385 121.802 8.99116 121.587 8.8045C121.372 8.6085 121.05 8.5105 120.621 8.5105C120.21 8.5105 119.884 8.62716 119.641 8.8605C119.398 9.0845 119.258 9.3785 119.221 9.7425L117.737 9.4065C117.802 8.7905 118.096 8.26783 118.619 7.8385C119.142 7.39983 119.804 7.1805 120.607 7.1805C121.596 7.1805 122.324 7.4185 122.791 7.8945C123.267 8.3705 123.505 8.98183 123.505 9.7285V13.1165C123.505 13.5645 123.533 13.9285 123.589 14.2085H122.077C122.03 14.0685 122.007 13.7792 122.007 13.3405C121.559 14.0592 120.859 14.4185 119.907 14.4185C119.216 14.4185 118.656 14.2178 118.227 13.8165C117.807 13.4058 117.597 12.9205 117.597 12.3605ZM120.215 13.1445C120.719 13.1445 121.125 13.0092 121.433 12.7385C121.75 12.4585 121.909 12.0058 121.909 11.3805V11.0725L120.131 11.3385C119.524 11.4412 119.221 11.7492 119.221 12.2625C119.221 12.5052 119.31 12.7152 119.487 12.8925C119.664 13.0605 119.907 13.1445 120.215 13.1445ZM127.078 14.2085H125.468V7.3905H127.078V14.2085ZM125.524 5.7385C125.319 5.53316 125.216 5.28583 125.216 4.9965C125.216 4.70716 125.319 4.45983 125.524 4.2545C125.73 4.03983 125.977 3.9325 126.266 3.9325C126.565 3.9325 126.817 4.03516 127.022 4.2405C127.228 4.44583 127.33 4.69783 127.33 4.9965C127.33 5.28583 127.228 5.53316 127.022 5.7385C126.817 5.94383 126.565 6.0465 126.266 6.0465C125.977 6.0465 125.73 5.94383 125.524 5.7385ZM130.797 14.2085H129.173V4.0725H130.797V14.2085ZM133.061 13.9705C132.846 13.7465 132.739 13.4758 132.739 13.1585C132.739 12.8412 132.846 12.5705 133.061 12.3465C133.285 12.1225 133.556 12.0105 133.873 12.0105C134.19 12.0105 134.461 12.1225 134.685 12.3465C134.909 12.5705 135.021 12.8412 135.021 13.1585C135.021 13.4758 134.909 13.7465 134.685 13.9705C134.461 14.1852 134.19 14.2925 133.873 14.2925C133.556 14.2925 133.285 14.1852 133.061 13.9705ZM139.729 8.6785C139.207 8.6785 138.763 8.86983 138.399 9.2525C138.035 9.62583 137.853 10.1392 137.853 10.7925C137.853 11.4552 138.035 11.9778 138.399 12.3605C138.773 12.7432 139.225 12.9345 139.757 12.9345C140.233 12.9345 140.611 12.8085 140.891 12.5565C141.181 12.2952 141.372 12.0012 141.465 11.6745L142.893 12.1925C142.707 12.7992 142.343 13.3218 141.801 13.7605C141.269 14.1992 140.588 14.4185 139.757 14.4185C138.759 14.4185 137.919 14.0732 137.237 13.3825C136.565 12.6918 136.229 11.8285 136.229 10.7925C136.229 9.74716 136.561 8.88383 137.223 8.2025C137.895 7.52116 138.726 7.1805 139.715 7.1805C140.565 7.1805 141.255 7.39983 141.787 7.8385C142.329 8.27716 142.679 8.8045 142.837 9.4205L141.381 9.9525C141.288 9.59783 141.106 9.29916 140.835 9.0565C140.574 8.8045 140.205 8.6785 139.729 8.6785ZM145.905 12.3885C146.278 12.7712 146.731 12.9625 147.263 12.9625C147.795 12.9625 148.243 12.7712 148.607 12.3885C148.98 12.0058 149.167 11.4738 149.167 10.7925C149.167 10.1205 148.98 9.59783 148.607 9.2245C148.243 8.84183 147.795 8.6505 147.263 8.6505C146.731 8.6505 146.278 8.84183 145.905 9.2245C145.541 9.59783 145.359 10.1205 145.359 10.7925C145.359 11.4645 145.541 11.9965 145.905 12.3885ZM147.263 7.1805C148.29 7.1805 149.134 7.52116 149.797 8.2025C150.469 8.88383 150.805 9.74716 150.805 10.7925C150.805 11.8378 150.469 12.7058 149.797 13.3965C149.134 14.0778 148.29 14.4185 147.263 14.4185C146.246 14.4185 145.401 14.0778 144.729 13.3965C144.066 12.7058 143.735 11.8378 143.735 10.7925C143.735 9.74716 144.066 8.88383 144.729 8.2025C145.401 7.52116 146.246 7.1805 147.263 7.1805ZM153.985 14.2085H152.375V7.3905H153.929V8.2585C154.115 7.9225 154.395 7.66116 154.769 7.4745C155.151 7.28783 155.543 7.1945 155.945 7.1945C156.402 7.1945 156.813 7.29716 157.177 7.5025C157.541 7.70783 157.811 8.0065 157.989 8.3985C158.465 7.59583 159.202 7.1945 160.201 7.1945C160.873 7.1945 161.442 7.41383 161.909 7.8525C162.375 8.29116 162.609 8.93516 162.609 9.7845V14.2085H161.041V10.0505C161.041 9.6305 160.929 9.2945 160.705 9.0425C160.49 8.78116 160.163 8.6505 159.725 8.6505C159.305 8.6505 158.964 8.79516 158.703 9.0845C158.441 9.37383 158.311 9.73316 158.311 10.1625V14.2085H156.715V10.0505C156.715 9.6305 156.603 9.2945 156.379 9.0425C156.164 8.78116 155.837 8.6505 155.399 8.6505C154.969 8.6505 154.624 8.79516 154.363 9.0845C154.111 9.3645 153.985 9.72383 153.985 10.1625V14.2085ZM164.807 13.9705C164.593 13.7465 164.485 13.4758 164.485 13.1585C164.485 12.8412 164.593 12.5705 164.807 12.3465C165.031 12.1225 165.302 12.0105 165.619 12.0105C165.937 12.0105 166.207 12.1225 166.431 12.3465C166.655 12.5705 166.767 12.8412 166.767 13.1585C166.767 13.4758 166.655 13.7465 166.431 13.9705C166.207 14.1852 165.937 14.2925 165.619 14.2925C165.302 14.2925 165.031 14.1852 164.807 13.9705ZM171.475 8.6785C170.953 8.6785 170.509 8.86983 170.145 9.2525C169.781 9.62583 169.599 10.1392 169.599 10.7925C169.599 11.4552 169.781 11.9778 170.145 12.3605C170.519 12.7432 170.971 12.9345 171.503 12.9345C171.979 12.9345 172.357 12.8085 172.637 12.5565C172.927 12.2952 173.118 12.0012 173.211 11.6745L174.639 12.1925C174.453 12.7992 174.089 13.3218 173.547 13.7605C173.015 14.1992 172.334 14.4185 171.503 14.4185C170.505 14.4185 169.665 14.0732 168.983 13.3825C168.311 12.6918 167.975 11.8285 167.975 10.7925C167.975 9.74716 168.307 8.88383 168.969 8.2025C169.641 7.52116 170.472 7.1805 171.461 7.1805C172.311 7.1805 173.001 7.39983 173.533 7.8385C174.075 8.27716 174.425 8.8045 174.583 9.4205L173.127 9.9525C173.034 9.59783 172.852 9.29916 172.581 9.0565C172.32 8.8045 171.951 8.6785 171.475 8.6785ZM177.651 12.3885C178.025 12.7712 178.477 12.9625 179.009 12.9625C179.541 12.9625 179.989 12.7712 180.353 12.3885C180.727 12.0058 180.913 11.4738 180.913 10.7925C180.913 10.1205 180.727 9.59783 180.353 9.2245C179.989 8.84183 179.541 8.6505 179.009 8.6505C178.477 8.6505 178.025 8.84183 177.651 9.2245C177.287 9.59783 177.105 10.1205 177.105 10.7925C177.105 11.4645 177.287 11.9965 177.651 12.3885ZM179.009 7.1805C180.036 7.1805 180.881 7.52116 181.543 8.2025C182.215 8.88383 182.551 9.74716 182.551 10.7925C182.551 11.8378 182.215 12.7058 181.543 13.3965C180.881 14.0778 180.036 14.4185 179.009 14.4185C177.992 14.4185 177.147 14.0778 176.475 13.3965C175.813 12.7058 175.481 11.8378 175.481 10.7925C175.481 9.74716 175.813 8.88383 176.475 8.2025C177.147 7.52116 177.992 7.1805 179.009 7.1805ZM185.731 14.2085H184.121V7.3905H185.675V8.2585C185.861 7.9225 186.141 7.66116 186.515 7.4745C186.897 7.28783 187.289 7.1945 187.691 7.1945C188.148 7.1945 188.559 7.29716 188.923 7.5025C189.287 7.70783 189.557 8.0065 189.735 8.3985C190.211 7.59583 190.948 7.1945 191.947 7.1945C192.619 7.1945 193.188 7.41383 193.655 7.8525C194.121 8.29116 194.355 8.93516 194.355 9.7845V14.2085H192.787V10.0505C192.787 9.6305 192.675 9.2945 192.451 9.0425C192.236 8.78116 191.909 8.6505 191.471 8.6505C191.051 8.6505 190.71 8.79516 190.449 9.0845C190.187 9.37383 190.057 9.73316 190.057 10.1625V14.2085H188.461V10.0505C188.461 9.6305 188.349 9.2945 188.125 9.0425C187.91 8.78116 187.583 8.6505 187.145 8.6505C186.715 8.6505 186.37 8.79516 186.109 9.0845C185.857 9.3645 185.731 9.72383 185.731 10.1625V14.2085Z" fill="white"/>
<path d="M2.07853 6.01025H12.4731C13.1877 6.01025 13.7724 6.57592 13.7724 7.26729V14.8095C13.7724 15.5009 13.1877 16.0665 12.4731 16.0665H2.07853C1.3639 16.0665 0.779205 15.5009 0.779205 14.8095V7.26729C0.779205 6.57592 1.3639 6.01025 2.07853 6.01025Z" stroke="white" stroke-linecap="round" stroke-linejoin="round"/>
<path d="M13.7724 7.26709L7.27582 11.6667L0.779205 7.26709" stroke="white" stroke-linecap="round" stroke-linejoin="round"/>
</svg>
