<svg width="285" height="21" viewBox="0 0 285 21" fill="none" xmlns="http://www.w3.org/2000/svg">
<path d="M24.2293 12.7088V10.8888L28.0933 5.62478H30.2493V11.2248H31.7753V12.7088H30.2493V14.6968H28.5973V12.7088H24.2293ZM28.5973 11.2248V7.31878L25.7413 11.2248H28.5973ZM32.4321 12.1908L34.0141 11.7848C34.0515 12.2794 34.2381 12.6854 34.5741 13.0028C34.9101 13.3201 35.3348 13.4788 35.8481 13.4788C36.3335 13.4788 36.7395 13.3294 37.0661 13.0308C37.4021 12.7228 37.5701 12.3214 37.5701 11.8268C37.5701 11.2948 37.4021 10.8841 37.0661 10.5948C36.7301 10.2961 36.3148 10.1468 35.8201 10.1468C35.1855 10.1468 34.6815 10.3568 34.3081 10.7768L32.7261 10.2028L33.8461 5.62478H38.8161V7.09478H34.9801L34.4201 9.39078C34.8215 8.97078 35.4001 8.76078 36.1561 8.76078C37.0801 8.76078 37.8268 9.03144 38.3961 9.57278C38.9748 10.1141 39.2641 10.8514 39.2641 11.7848C39.2641 12.6621 38.9515 13.4041 38.3261 14.0108C37.7008 14.6174 36.8748 14.9208 35.8481 14.9208C34.8961 14.9208 34.1028 14.6548 33.4681 14.1228C32.8335 13.5814 32.4881 12.9374 32.4321 12.1908ZM41.9637 10.1608C41.9637 11.3368 42.1784 12.2001 42.6077 12.7508C42.9437 13.1988 43.4104 13.4228 44.0077 13.4228C44.5864 13.4228 45.0531 13.1988 45.4077 12.7508C45.8277 12.2094 46.0377 11.3461 46.0377 10.1608C46.0377 8.97544 45.8277 8.11211 45.4077 7.57078C45.0531 7.12278 44.5864 6.89878 44.0077 6.89878C43.4104 6.89878 42.9437 7.12278 42.6077 7.57078C42.1784 8.10278 41.9637 8.96611 41.9637 10.1608ZM41.1097 13.4228C40.5684 12.6108 40.2977 11.5234 40.2977 10.1608C40.2977 8.79811 40.5684 7.71078 41.1097 6.89878C41.7724 5.90944 42.7384 5.41478 44.0077 5.41478C45.2677 5.41478 46.2291 5.90944 46.8917 6.89878C47.4331 7.71078 47.7037 8.79811 47.7037 10.1608C47.7037 11.5234 47.4331 12.6108 46.8917 13.4228C46.2291 14.4121 45.2677 14.9068 44.0077 14.9068C42.7384 14.9068 41.7724 14.4121 41.1097 13.4228ZM62.1824 12.0788L64.1284 4.77078H65.8644L63.0784 14.6968H61.3424L58.9343 7.19278L56.5263 14.6968H54.8043L51.9903 4.77078H53.7543L55.7423 12.0228L58.0663 4.77078H59.8163L62.1824 12.0788ZM66.2469 12.8488C66.2469 12.2701 66.4336 11.8081 66.8069 11.4628C67.1896 11.1081 67.6889 10.8841 68.3049 10.7908L70.0549 10.5248C70.3909 10.4781 70.5589 10.3148 70.5589 10.0348C70.5589 9.72678 70.4516 9.47944 70.2369 9.29278C70.0223 9.09678 69.7003 8.99878 69.2709 8.99878C68.8603 8.99878 68.5336 9.11544 68.2909 9.34878C68.0483 9.57278 67.9083 9.86678 67.8709 10.2308L66.3869 9.89478C66.4523 9.27878 66.7463 8.75611 67.2689 8.32678C67.7916 7.88811 68.4543 7.66878 69.2569 7.66878C70.2463 7.66878 70.9743 7.90678 71.4409 8.38278C71.9169 8.85878 72.1549 9.47011 72.1549 10.2168V13.6048C72.1549 14.0528 72.1829 14.4168 72.2389 14.6968H70.7269C70.6803 14.5568 70.6569 14.2674 70.6569 13.8288C70.2089 14.5474 69.5089 14.9068 68.5569 14.9068C67.8663 14.9068 67.3063 14.7061 66.8769 14.3048C66.4569 13.8941 66.2469 13.4088 66.2469 12.8488ZM68.8649 13.6328C69.3689 13.6328 69.7749 13.4974 70.0829 13.2268C70.4003 12.9468 70.5589 12.4941 70.5589 11.8688V11.5608L68.7809 11.8268C68.1743 11.9294 67.8709 12.2374 67.8709 12.7508C67.8709 12.9934 67.9596 13.2034 68.1369 13.3808C68.3143 13.5488 68.5569 13.6328 68.8649 13.6328ZM75.7421 14.6968H74.1181V4.56078H75.7421V14.6968ZM79.4609 14.6968H77.8369V4.56078H79.4609V14.6968ZM91.6923 7.09478L90.1803 7.57078C90.1149 7.18811 89.9236 6.83811 89.6063 6.52078C89.2889 6.20344 88.8316 6.04478 88.2343 6.04478C87.7396 6.04478 87.3289 6.18478 87.0023 6.46478C86.6849 6.74478 86.5263 7.08078 86.5263 7.47278C86.5263 8.15411 86.9136 8.57878 87.6883 8.74678L89.1163 9.04078C89.9749 9.20878 90.6376 9.54944 91.1043 10.0628C91.5709 10.5761 91.8043 11.1874 91.8043 11.8968C91.8043 12.7181 91.4869 13.4274 90.8523 14.0248C90.2269 14.6128 89.3729 14.9068 88.2903 14.9068C87.1236 14.9068 86.2136 14.6034 85.5603 13.9968C84.9069 13.3808 84.5383 12.6668 84.4543 11.8548L86.0223 11.4068C86.0783 11.9668 86.3023 12.4381 86.6943 12.8208C87.0863 13.2034 87.6183 13.3948 88.2903 13.3948C88.8689 13.3948 89.3123 13.2688 89.6203 13.0168C89.9376 12.7554 90.0963 12.4241 90.0963 12.0228C90.0963 11.6961 89.9796 11.4161 89.7463 11.1828C89.5129 10.9401 89.1863 10.7721 88.7663 10.6788L87.3663 10.3848C86.5916 10.2261 85.9756 9.90411 85.5183 9.41878C85.0703 8.93344 84.8463 8.32678 84.8463 7.59878C84.8463 6.76811 85.1776 6.05411 85.8403 5.45678C86.5029 4.85944 87.2963 4.56078 88.2203 4.56078C89.2749 4.56078 90.0823 4.81744 90.6423 5.33078C91.2023 5.83478 91.5523 6.42278 91.6923 7.09478ZM95.4398 5.79278V7.87878H96.8538V9.32078H95.4398V12.4848C95.4398 12.7834 95.5098 13.0028 95.6498 13.1428C95.7898 13.2734 96.0091 13.3388 96.3078 13.3388C96.4945 13.3388 96.6811 13.3201 96.8678 13.2828V14.6268C96.6251 14.7294 96.2938 14.7808 95.8738 14.7808C95.2391 14.7808 94.7398 14.6034 94.3758 14.2488C94.0118 13.8848 93.8298 13.3854 93.8298 12.7508V9.32078H92.5698V7.87878H92.9198C93.2651 7.87878 93.5265 7.78078 93.7038 7.58478C93.8811 7.38878 93.9698 7.13211 93.9698 6.81478V5.79278H95.4398ZM102.389 7.83678V9.48878C102.203 9.46078 102.025 9.44678 101.857 9.44678C100.635 9.44678 100.023 10.1141 100.023 11.4488V14.6968H98.3994V7.87878H99.9814V8.97078C100.14 8.60678 100.397 8.32211 100.751 8.11678C101.106 7.90211 101.507 7.79478 101.955 7.79478C102.105 7.79478 102.249 7.80878 102.389 7.83678ZM104.811 10.5388H108.157C108.138 10.1094 107.984 9.75011 107.695 9.46078C107.415 9.17144 107.009 9.02678 106.477 9.02678C105.991 9.02678 105.599 9.18078 105.301 9.48878C105.002 9.78744 104.839 10.1374 104.811 10.5388ZM108.339 12.3168L109.711 12.7508C109.515 13.3761 109.146 13.8941 108.605 14.3048C108.073 14.7061 107.415 14.9068 106.631 14.9068C105.66 14.9068 104.834 14.5754 104.153 13.9128C103.481 13.2501 103.145 12.3634 103.145 11.2528C103.145 10.2074 103.471 9.34878 104.125 8.67678C104.787 8.00478 105.567 7.66878 106.463 7.66878C107.508 7.66878 108.325 7.99078 108.913 8.63478C109.501 9.26944 109.795 10.1281 109.795 11.2108C109.795 11.5001 109.781 11.6728 109.753 11.7288H104.769C104.787 12.2421 104.974 12.6668 105.329 13.0028C105.693 13.3388 106.127 13.5068 106.631 13.5068C107.508 13.5068 108.077 13.1101 108.339 12.3168ZM112.481 10.5388H115.827C115.808 10.1094 115.654 9.75011 115.365 9.46078C115.085 9.17144 114.679 9.02678 114.147 9.02678C113.661 9.02678 113.269 9.18078 112.971 9.48878C112.672 9.78744 112.509 10.1374 112.481 10.5388ZM116.009 12.3168L117.381 12.7508C117.185 13.3761 116.816 13.8941 116.275 14.3048C115.743 14.7061 115.085 14.9068 114.301 14.9068C113.33 14.9068 112.504 14.5754 111.823 13.9128C111.151 13.2501 110.815 12.3634 110.815 11.2528C110.815 10.2074 111.141 9.34878 111.795 8.67678C112.457 8.00478 113.237 7.66878 114.133 7.66878C115.178 7.66878 115.995 7.99078 116.583 8.63478C117.171 9.26944 117.465 10.1281 117.465 11.2108C117.465 11.5001 117.451 11.6728 117.423 11.7288H112.439C112.457 12.2421 112.644 12.6668 112.999 13.0028C113.363 13.3388 113.797 13.5068 114.301 13.5068C115.178 13.5068 115.747 13.1101 116.009 12.3168ZM121.075 5.79278V7.87878H122.489V9.32078H121.075V12.4848C121.075 12.7834 121.145 13.0028 121.285 13.1428C121.425 13.2734 121.644 13.3388 121.943 13.3388C122.129 13.3388 122.316 13.3201 122.503 13.2828V14.6268C122.26 14.7294 121.929 14.7808 121.509 14.7808C120.874 14.7808 120.375 14.6034 120.011 14.2488C119.647 13.8848 119.465 13.3854 119.465 12.7508V9.32078H118.205V7.87878H118.555C118.9 7.87878 119.161 7.78078 119.339 7.58478C119.516 7.38878 119.605 7.13211 119.605 6.81478V5.79278H121.075ZM123.99 13.6748C123.99 13.3761 124.102 13.1241 124.326 12.9188C124.55 12.7134 124.825 12.6108 125.152 12.6108C125.525 12.6108 125.829 12.7461 126.062 13.0168C126.305 13.2874 126.426 13.6468 126.426 14.0948C126.426 14.9814 126.188 15.6674 125.712 16.1528C125.245 16.6474 124.723 16.9321 124.144 17.0068V16.1808C124.471 16.1061 124.755 15.9241 124.998 15.6348C125.25 15.3454 125.381 15.0234 125.39 14.6688C125.297 14.7154 125.185 14.7388 125.054 14.7388C124.746 14.7388 124.489 14.6408 124.284 14.4448C124.088 14.2488 123.99 13.9921 123.99 13.6748ZM138.238 13.9408C137.548 14.5848 136.661 14.9068 135.578 14.9068C134.496 14.9068 133.609 14.5848 132.918 13.9408C132.228 13.2968 131.882 12.3961 131.882 11.2388V4.77078H133.548V11.1408C133.548 11.8314 133.726 12.3681 134.08 12.7508C134.444 13.1241 134.944 13.3108 135.578 13.3108C136.222 13.3108 136.722 13.1241 137.076 12.7508C137.431 12.3774 137.608 11.8408 137.608 11.1408V4.77078H139.288V11.2388C139.288 12.3961 138.938 13.2968 138.238 13.9408ZM148.075 7.09478L146.563 7.57078C146.498 7.18811 146.306 6.83811 145.989 6.52078C145.672 6.20344 145.214 6.04478 144.617 6.04478C144.122 6.04478 143.712 6.18478 143.385 6.46478C143.068 6.74478 142.909 7.08078 142.909 7.47278C142.909 8.15411 143.296 8.57878 144.071 8.74678L145.499 9.04078C146.358 9.20878 147.02 9.54944 147.487 10.0628C147.954 10.5761 148.187 11.1874 148.187 11.8968C148.187 12.7181 147.87 13.4274 147.235 14.0248C146.61 14.6128 145.756 14.9068 144.673 14.9068C143.506 14.9068 142.596 14.6034 141.943 13.9968C141.29 13.3808 140.921 12.6668 140.837 11.8548L142.405 11.4068C142.461 11.9668 142.685 12.4381 143.077 12.8208C143.469 13.2034 144.001 13.3948 144.673 13.3948C145.252 13.3948 145.695 13.2688 146.003 13.0168C146.32 12.7554 146.479 12.4241 146.479 12.0228C146.479 11.6961 146.362 11.4161 146.129 11.1828C145.896 10.9401 145.569 10.7721 145.149 10.6788L143.749 10.3848C142.974 10.2261 142.358 9.90411 141.901 9.41878C141.453 8.93344 141.229 8.32678 141.229 7.59878C141.229 6.76811 141.56 6.05411 142.223 5.45678C142.886 4.85944 143.679 4.56078 144.603 4.56078C145.658 4.56078 146.465 4.81744 147.025 5.33078C147.585 5.83478 147.935 6.42278 148.075 7.09478ZM156.585 14.6968L155.647 12.2048H151.447L150.523 14.6968H148.745L152.609 4.77078H154.555L158.419 14.6968H156.585ZM153.547 6.59078L152.035 10.6508H155.059L153.547 6.59078ZM159.468 13.6748C159.468 13.3761 159.58 13.1241 159.804 12.9188C160.028 12.7134 160.304 12.6108 160.63 12.6108C161.004 12.6108 161.307 12.7461 161.54 13.0168C161.783 13.2874 161.904 13.6468 161.904 14.0948C161.904 14.9814 161.666 15.6674 161.19 16.1528C160.724 16.6474 160.201 16.9321 159.622 17.0068V16.1808C159.949 16.1061 160.234 15.9241 160.476 15.6348C160.728 15.3454 160.859 15.0234 160.868 14.6688C160.775 14.7154 160.663 14.7388 160.532 14.7388C160.224 14.7388 159.968 14.6408 159.762 14.4448C159.566 14.2488 159.468 13.9921 159.468 13.6748ZM175.803 14.6968H174.053L169.153 7.17878V14.6968H167.473V4.77078H169.615L174.123 11.8128V4.77078H175.803V14.6968ZM179.145 10.5388H182.491C182.472 10.1094 182.318 9.75011 182.029 9.46078C181.749 9.17144 181.343 9.02678 180.811 9.02678C180.325 9.02678 179.933 9.18078 179.635 9.48878C179.336 9.78744 179.173 10.1374 179.145 10.5388ZM182.673 12.3168L184.045 12.7508C183.849 13.3761 183.48 13.8941 182.939 14.3048C182.407 14.7061 181.749 14.9068 180.965 14.9068C179.994 14.9068 179.168 14.5754 178.487 13.9128C177.815 13.2501 177.479 12.3634 177.479 11.2528C177.479 10.2074 177.805 9.34878 178.459 8.67678C179.121 8.00478 179.901 7.66878 180.797 7.66878C181.842 7.66878 182.659 7.99078 183.247 8.63478C183.835 9.26944 184.129 10.1281 184.129 11.2108C184.129 11.5001 184.115 11.6728 184.087 11.7288H179.103C179.121 12.2421 179.308 12.6668 179.663 13.0028C180.027 13.3388 180.461 13.5068 180.965 13.5068C181.842 13.5068 182.411 13.1101 182.673 12.3168ZM189.449 7.87878H191.129L192.739 12.5968L194.097 7.87878H195.749L193.565 14.6968H191.941L190.247 9.79678L188.595 14.6968H186.929L184.717 7.87878H186.453L187.839 12.5968L189.449 7.87878ZM203.022 10.4968L199.55 4.77078H201.538L203.918 8.92878L206.312 4.77078H208.202L204.702 10.4968V14.6968H203.022V10.4968ZM209.699 12.8768C210.073 13.2594 210.525 13.4508 211.057 13.4508C211.589 13.4508 212.037 13.2594 212.401 12.8768C212.775 12.4941 212.961 11.9621 212.961 11.2808C212.961 10.6088 212.775 10.0861 212.401 9.71278C212.037 9.33011 211.589 9.13878 211.057 9.13878C210.525 9.13878 210.073 9.33011 209.699 9.71278C209.335 10.0861 209.153 10.6088 209.153 11.2808C209.153 11.9528 209.335 12.4848 209.699 12.8768ZM211.057 7.66878C212.084 7.66878 212.929 8.00944 213.591 8.69078C214.263 9.37211 214.599 10.2354 214.599 11.2808C214.599 12.3261 214.263 13.1941 213.591 13.8848C212.929 14.5661 212.084 14.9068 211.057 14.9068C210.04 14.9068 209.195 14.5661 208.523 13.8848C207.861 13.1941 207.529 12.3261 207.529 11.2808C207.529 10.2354 207.861 9.37211 208.523 8.69078C209.195 8.00944 210.04 7.66878 211.057 7.66878ZM220.159 7.83678V9.48878C219.972 9.46078 219.795 9.44678 219.627 9.44678C218.404 9.44678 217.793 10.1141 217.793 11.4488V14.6968H216.169V7.87878H217.751V8.97078C217.91 8.60678 218.166 8.32211 218.521 8.11678C218.876 7.90211 219.277 7.79478 219.725 7.79478C219.874 7.79478 220.019 7.80878 220.159 7.83678ZM227.899 7.87878L225.099 10.7628L227.955 14.6968H225.967L223.965 11.9108L223.125 12.7928V14.6968H221.515V4.56078H223.125V10.6368L225.743 7.87878H227.899Z" fill="white"/>
<path d="M13.7724 10.8501C13.7724 15.7386 7.27582 19.9287 7.27582 19.9287C7.27582 19.9287 0.779205 15.7386 0.779205 10.8501C0.779205 9.18318 1.46367 7.58453 2.68202 6.40583C3.90037 5.22713 5.55281 4.56494 7.27582 4.56494C8.99883 4.56494 10.6513 5.22713 11.8696 6.40583C13.088 7.58453 13.7724 9.18318 13.7724 10.8501Z" stroke="white" stroke-linecap="round" stroke-linejoin="round"/>
<path d="M7.27589 12.9445C8.47188 12.9445 9.44143 12.0065 9.44143 10.8495C9.44143 9.69238 8.47188 8.75439 7.27589 8.75439C6.0799 8.75439 5.11035 9.69238 5.11035 10.8495C5.11035 12.0065 6.0799 12.9445 7.27589 12.9445Z" stroke="white" stroke-linecap="round" stroke-linejoin="round"/>
</svg>
