<svg width="285" height="19" viewBox="0 0 285 19" fill="none" xmlns="http://www.w3.org/2000/svg">
<path d="M26.6373 9.59015H28.3873C28.9193 9.59015 29.3347 9.45481 29.6333 9.18415C29.9413 8.90415 30.0953 8.53081 30.0953 8.06415C30.0953 7.58815 29.9413 7.21015 29.6333 6.93015C29.3347 6.65015 28.9193 6.51015 28.3873 6.51015H26.6373V9.59015ZM28.6393 11.0741H26.6373V14.9521H24.9573V5.02615H28.6393C29.582 5.02615 30.3427 5.31081 30.9213 5.88015C31.5093 6.44948 31.8033 7.17281 31.8033 8.05015C31.8033 8.93681 31.5093 9.66481 30.9213 10.2341C30.3427 10.7941 29.582 11.0741 28.6393 11.0741ZM34.7538 10.9481V14.9521H33.1298V4.81615H34.7538V8.79215C35.1925 8.22281 35.8412 7.93815 36.6998 7.93815C37.5025 7.93815 38.1185 8.19015 38.5478 8.69415C38.9772 9.19815 39.1918 9.84681 39.1918 10.6401V14.9521H37.5678V10.9201C37.5678 10.4628 37.4558 10.0988 37.2318 9.82815C37.0078 9.54815 36.6532 9.40815 36.1678 9.40815C35.7385 9.40815 35.3978 9.55281 35.1458 9.84215C34.9032 10.1315 34.7725 10.5001 34.7538 10.9481ZM42.8069 13.1321C43.1802 13.5148 43.6329 13.7061 44.1649 13.7061C44.6969 13.7061 45.1449 13.5148 45.5089 13.1321C45.8822 12.7495 46.0689 12.2175 46.0689 11.5361C46.0689 10.8641 45.8822 10.3415 45.5089 9.96815C45.1449 9.58548 44.6969 9.39415 44.1649 9.39415C43.6329 9.39415 43.1802 9.58548 42.8069 9.96815C42.4429 10.3415 42.2609 10.8641 42.2609 11.5361C42.2609 12.2081 42.4429 12.7401 42.8069 13.1321ZM44.1649 7.92415C45.1916 7.92415 46.0362 8.26481 46.6989 8.94615C47.3709 9.62748 47.7069 10.4908 47.7069 11.5361C47.7069 12.5815 47.3709 13.4495 46.6989 14.1401C46.0362 14.8215 45.1916 15.1621 44.1649 15.1621C43.1476 15.1621 42.3029 14.8215 41.6309 14.1401C40.9682 13.4495 40.6369 12.5815 40.6369 11.5361C40.6369 10.4908 40.9682 9.62748 41.6309 8.94615C42.3029 8.26481 43.1476 7.92415 44.1649 7.92415ZM50.9003 11.0181V14.9521H49.2763V8.13415H50.8583V9.04415C51.073 8.67081 51.3577 8.39548 51.7123 8.21815C52.0763 8.03148 52.4637 7.93815 52.8743 7.93815C53.677 7.93815 54.2883 8.19015 54.7083 8.69415C55.1283 9.19815 55.3383 9.84681 55.3383 10.6401V14.9521H53.7143V10.9201C53.7143 10.4628 53.6023 10.0988 53.3783 9.82815C53.1543 9.54815 52.7997 9.40815 52.3143 9.40815C51.8663 9.40815 51.5163 9.56215 51.2643 9.87015C51.0217 10.1688 50.9003 10.5515 50.9003 11.0181ZM58.4494 10.7941H61.7954C61.7767 10.3648 61.6227 10.0055 61.3334 9.71615C61.0534 9.42681 60.6474 9.28215 60.1154 9.28215C59.63 9.28215 59.238 9.43615 58.9394 9.74415C58.6407 10.0428 58.4774 10.3928 58.4494 10.7941ZM61.9774 12.5721L63.3494 13.0061C63.1534 13.6315 62.7847 14.1495 62.2434 14.5601C61.7114 14.9615 61.0534 15.1621 60.2694 15.1621C59.2987 15.1621 58.4727 14.8308 57.7914 14.1681C57.1194 13.5055 56.7834 12.6188 56.7834 11.5081C56.7834 10.4628 57.11 9.60415 57.7634 8.93215C58.426 8.26015 59.2054 7.92415 60.1014 7.92415C61.1467 7.92415 61.9634 8.24615 62.5514 8.89015C63.1394 9.52481 63.4334 10.3835 63.4334 11.4661C63.4334 11.7555 63.4194 11.9281 63.3914 11.9841H58.4074C58.426 12.4975 58.6127 12.9221 58.9674 13.2581C59.3314 13.5941 59.7654 13.7621 60.2694 13.7621C61.1467 13.7621 61.716 13.3655 61.9774 12.5721ZM64.9293 13.9161C64.9293 13.5988 65.0366 13.3328 65.2513 13.1181C65.4753 12.8941 65.746 12.7821 66.0633 12.7821C66.3713 12.7821 66.6373 12.8941 66.8613 13.1181C67.0853 13.3328 67.1973 13.5988 67.1973 13.9161C67.1973 14.2241 67.0853 14.4901 66.8613 14.7141C66.6373 14.9288 66.3713 15.0361 66.0633 15.0361C65.746 15.0361 65.4753 14.9288 65.2513 14.7141C65.0366 14.4901 64.9293 14.2241 64.9293 13.9161ZM64.9153 9.18415C64.9153 8.86681 65.0226 8.60081 65.2373 8.38615C65.4613 8.16215 65.732 8.05015 66.0493 8.05015C66.3573 8.05015 66.6233 8.16215 66.8473 8.38615C67.0713 8.60081 67.1833 8.86681 67.1833 9.18415C67.1833 9.49215 67.0713 9.75815 66.8473 9.98215C66.6233 10.1968 66.3573 10.3041 66.0493 10.3041C65.732 10.3041 65.4613 10.1968 65.2373 9.98215C65.0226 9.75815 64.9153 9.49215 64.9153 9.18415ZM75.1186 17.3041C73.2426 15.4281 72.3046 13.1508 72.3046 10.4721C72.3046 7.79348 73.2426 5.51615 75.1186 3.64015L76.0706 4.50815C74.4746 6.25348 73.6766 8.24148 73.6766 10.4721C73.6766 12.7121 74.4746 14.7048 76.0706 16.4501L75.1186 17.3041ZM78.0985 10.4161C78.0985 11.5921 78.3132 12.4555 78.7425 13.0061C79.0785 13.4541 79.5452 13.6781 80.1425 13.6781C80.7212 13.6781 81.1878 13.4541 81.5425 13.0061C81.9625 12.4648 82.1725 11.6015 82.1725 10.4161C82.1725 9.23081 81.9625 8.36748 81.5425 7.82615C81.1878 7.37815 80.7212 7.15415 80.1425 7.15415C79.5452 7.15415 79.0785 7.37815 78.7425 7.82615C78.3132 8.35815 78.0985 9.22148 78.0985 10.4161ZM77.2445 13.6781C76.7032 12.8661 76.4325 11.7788 76.4325 10.4161C76.4325 9.05348 76.7032 7.96615 77.2445 7.15415C77.9072 6.16481 78.8732 5.67015 80.1425 5.67015C81.4025 5.67015 82.3638 6.16481 83.0265 7.15415C83.5678 7.96615 83.8385 9.05348 83.8385 10.4161C83.8385 11.7788 83.5678 12.8661 83.0265 13.6781C82.3638 14.6675 81.4025 15.1621 80.1425 15.1621C78.8732 15.1621 77.9072 14.6675 77.2445 13.6781ZM91.8774 6.11815L91.4014 7.49015C90.9534 7.24748 90.4354 7.12615 89.8474 7.12615C88.9888 7.12615 88.2748 7.39215 87.7054 7.92415C87.1454 8.44681 86.8281 9.14681 86.7534 10.0241C87.2201 9.30548 87.9901 8.94615 89.0634 8.94615C89.9781 8.94615 90.7201 9.22615 91.2894 9.78615C91.8588 10.3461 92.1434 11.0881 92.1434 12.0121C92.1434 12.9361 91.8121 13.6921 91.1494 14.2801C90.4868 14.8681 89.6701 15.1621 88.6994 15.1621C87.5794 15.1621 86.6928 14.7608 86.0394 13.9581C85.3954 13.1555 85.0734 12.1521 85.0734 10.9481C85.0734 9.33348 85.5261 8.05015 86.4314 7.09815C87.3368 6.14615 88.5081 5.67015 89.9454 5.67015C90.7668 5.67015 91.4108 5.81948 91.8774 6.11815ZM86.9354 12.0401C86.9354 12.5441 87.1081 12.9548 87.4534 13.2721C87.8081 13.5801 88.2234 13.7341 88.6994 13.7341C89.1941 13.7341 89.6094 13.5801 89.9454 13.2721C90.2908 12.9641 90.4634 12.5535 90.4634 12.0401C90.4634 11.5268 90.2908 11.1161 89.9454 10.8081C89.6094 10.5001 89.1941 10.3461 88.6994 10.3461C88.2048 10.3461 87.7848 10.5001 87.4394 10.8081C87.1034 11.1161 86.9354 11.5268 86.9354 12.0401ZM93.0262 12.9641V11.1441L96.8902 5.88015H99.0462V11.4801H100.572V12.9641H99.0462V14.9521H97.3942V12.9641H93.0262ZM97.3942 11.4801V7.57415L94.5382 11.4801H97.3942ZM101.733 3.64015C103.609 5.49748 104.547 7.77481 104.547 10.4721C104.547 13.1695 103.609 15.4468 101.733 17.3041L100.781 16.4501C102.377 14.7141 103.175 12.7215 103.175 10.4721C103.175 8.23215 102.377 6.24415 100.781 4.50815L101.733 3.64015ZM111.763 10.8361L110.993 9.59015L113.499 7.35015H109.369V5.88015H115.669V7.28015L113.205 9.43615C113.933 9.45481 114.568 9.71148 115.109 10.2061C115.65 10.7008 115.921 11.3635 115.921 12.1941C115.921 13.0155 115.613 13.7155 114.997 14.2941C114.381 14.8728 113.555 15.1621 112.519 15.1621C111.511 15.1621 110.694 14.8868 110.069 14.3361C109.453 13.7761 109.117 13.0948 109.061 12.2921L110.699 11.9561C110.718 12.4788 110.895 12.9035 111.231 13.2301C111.576 13.5568 112.001 13.7201 112.505 13.7201C113.037 13.7201 113.457 13.5708 113.765 13.2721C114.073 12.9735 114.227 12.6095 114.227 12.1801C114.227 11.6948 114.064 11.3261 113.737 11.0741C113.42 10.8128 113.046 10.6821 112.617 10.6821C112.253 10.6821 111.968 10.7335 111.763 10.8361ZM119.474 10.8361L118.704 9.59015L121.21 7.35015H117.08V5.88015H123.38V7.28015L120.916 9.43615C121.644 9.45481 122.279 9.71148 122.82 10.2061C123.361 10.7008 123.632 11.3635 123.632 12.1941C123.632 13.0155 123.324 13.7155 122.708 14.2941C122.092 14.8728 121.266 15.1621 120.23 15.1621C119.222 15.1621 118.405 14.8868 117.78 14.3361C117.164 13.7761 116.828 13.0948 116.772 12.2921L118.41 11.9561C118.429 12.4788 118.606 12.9035 118.942 13.2301C119.287 13.5568 119.712 13.7201 120.216 13.7201C120.748 13.7201 121.168 13.5708 121.476 13.2721C121.784 12.9735 121.938 12.6095 121.938 12.1801C121.938 11.6948 121.775 11.3261 121.448 11.0741C121.131 10.8128 120.757 10.6821 120.328 10.6821C119.964 10.6821 119.679 10.7335 119.474 10.8361ZM126.304 9.28215L124.68 9.17015C124.652 8.91815 124.638 8.74548 124.638 8.65215C124.638 7.83081 124.927 7.13081 125.506 6.55215C126.094 5.96415 126.882 5.67015 127.872 5.67015C128.842 5.67015 129.617 5.94548 130.196 6.49615C130.774 7.04681 131.064 7.72348 131.064 8.52615C131.064 9.68348 130.48 10.6215 129.314 11.3401L127.55 12.4321C127.036 12.7401 126.728 13.0855 126.626 13.4681H131.12V14.9521H124.554C124.572 14.1401 124.745 13.4308 125.072 12.8241C125.398 12.2175 125.944 11.6761 126.71 11.2001L128.208 10.2621C128.982 9.77681 129.37 9.20748 129.37 8.55415C129.37 8.15282 129.234 7.81681 128.964 7.54615C128.702 7.27548 128.329 7.14015 127.844 7.14015C127.33 7.14015 126.938 7.29881 126.668 7.61615C126.397 7.92415 126.262 8.32548 126.262 8.82015L126.304 9.28215ZM136.189 11.5781H132.241V10.1361H136.189V11.5781ZM140.789 14.9521H139.137V8.73615H136.939V7.58815C137.573 7.57881 138.105 7.41548 138.535 7.09815C138.964 6.77148 139.23 6.36548 139.333 5.88015H140.789V14.9521ZM144.159 9.28215L142.535 9.17015C142.507 8.91815 142.493 8.74548 142.493 8.65215C142.493 7.83081 142.782 7.13081 143.361 6.55215C143.949 5.96415 144.738 5.67015 145.727 5.67015C146.698 5.67015 147.472 5.94548 148.051 6.49615C148.63 7.04681 148.919 7.72348 148.919 8.52615C148.919 9.68348 148.336 10.6215 147.169 11.3401L145.405 12.4321C144.892 12.7401 144.584 13.0855 144.481 13.4681H148.975V14.9521H142.409C142.428 14.1401 142.6 13.4308 142.927 12.8241C143.254 12.2175 143.8 11.6761 144.565 11.2001L146.063 10.2621C146.838 9.77681 147.225 9.20748 147.225 8.55415C147.225 8.15282 147.09 7.81681 146.819 7.54615C146.558 7.27548 146.184 7.14015 145.699 7.14015C145.186 7.14015 144.794 7.29881 144.523 7.61615C144.252 7.92415 144.117 8.32548 144.117 8.82015L144.159 9.28215ZM152.56 10.8361L151.79 9.59015L154.296 7.35015H150.166V5.88015H156.466V7.28015L154.002 9.43615C154.73 9.45481 155.365 9.71148 155.906 10.2061C156.447 10.7008 156.718 11.3635 156.718 12.1941C156.718 13.0155 156.41 13.7155 155.794 14.2941C155.178 14.8728 154.352 15.1621 153.316 15.1621C152.308 15.1621 151.491 14.8868 150.866 14.3361C150.25 13.7761 149.914 13.0948 149.858 12.2921L151.496 11.9561C151.515 12.4788 151.692 12.9035 152.028 13.2301C152.373 13.5568 152.798 13.7201 153.302 13.7201C153.834 13.7201 154.254 13.5708 154.562 13.2721C154.87 12.9735 155.024 12.6095 155.024 12.1801C155.024 11.6948 154.861 11.3261 154.534 11.0741C154.217 10.8128 153.843 10.6821 153.414 10.6821C153.05 10.6821 152.765 10.7335 152.56 10.8361ZM160.271 10.8361L159.501 9.59015L162.007 7.35015H157.877V5.88015H164.177V7.28015L161.713 9.43615C162.441 9.45481 163.076 9.71148 163.617 10.2061C164.158 10.7008 164.429 11.3635 164.429 12.1941C164.429 13.0155 164.121 13.7155 163.505 14.2941C162.889 14.8728 162.063 15.1621 161.027 15.1621C160.019 15.1621 159.202 14.8868 158.577 14.3361C157.961 13.7761 157.625 13.0948 157.569 12.2921L159.207 11.9561C159.226 12.4788 159.403 12.9035 159.739 13.2301C160.084 13.5568 160.509 13.7201 161.013 13.7201C161.545 13.7201 161.965 13.5708 162.273 13.2721C162.581 12.9735 162.735 12.6095 162.735 12.1801C162.735 11.6948 162.572 11.3261 162.245 11.0741C161.928 10.8128 161.554 10.6821 161.125 10.6821C160.761 10.6821 160.476 10.7335 160.271 10.8361Z" fill="white"/>
<path d="M8.81184 8.19017C9.41825 8.30464 9.97555 8.59156 10.4124 9.01422C10.8493 9.43688 11.1459 9.97605 11.2642 10.5627L8.81184 8.19017ZM8.81184 5.7876C10.0717 5.923 11.2466 6.46883 12.1435 7.33546C13.0404 8.20209 13.6061 9.33801 13.7476 10.5567L8.81184 5.7876ZM13.1268 15.3499V17.1518C13.1275 17.3191 13.092 17.4846 13.0228 17.6379C12.9535 17.7912 12.8519 17.9288 12.7245 18.0419C12.5971 18.1549 12.4467 18.241 12.2829 18.2946C12.1191 18.3482 11.9455 18.3681 11.7733 18.3531C9.86284 18.1522 8.02771 17.5207 6.41536 16.5091C4.91528 15.5869 3.64347 14.3565 2.69026 12.9052C1.641 11.3383 0.988034 9.55423 0.784245 7.69765C0.76873 7.53155 0.789134 7.36414 0.844157 7.20609C0.89918 7.04804 0.987617 6.90281 1.10384 6.77963C1.22006 6.65646 1.36151 6.55805 1.5192 6.49066C1.67689 6.42328 1.84735 6.3884 2.01974 6.38824H3.88229C4.18359 6.38537 4.47569 6.4886 4.70415 6.67867C4.9326 6.86875 5.08182 7.13271 5.12399 7.42135C5.2026 7.99801 5.3484 8.56421 5.55858 9.10916C5.64212 9.32414 5.66019 9.55779 5.61068 9.78241C5.56116 10.007 5.44613 10.2132 5.2792 10.3765L4.49072 11.1393C5.37454 12.6431 6.6615 13.8882 8.21582 14.7432L9.0043 13.9804C9.17311 13.8189 9.38622 13.7076 9.6184 13.6597C9.85058 13.6118 10.0921 13.6293 10.3143 13.7101C10.8776 13.9134 11.4628 14.0545 12.0589 14.1305C12.3605 14.1717 12.6359 14.3187 12.8328 14.5435C13.0297 14.7683 13.1343 15.0553 13.1268 15.3499Z" stroke="white" stroke-linecap="round" stroke-linejoin="round"/>
</svg>
